<svg width="16" height="16" viewBox="0 0 16 16" fill="none" xmlns="http://www.w3.org/2000/svg">
    <path d="M6.98501 14.0837C7.65526 14.1951 8.33927 14.1955 9.00967 14.085M6.98501 14.0837C5.54531 13.8434 4.23686 13.1002 3.29361 11.9863C2.35037 10.8724 1.83281 9.45998 1.83301 8.00036C1.83325 6.82393 2.17 5.67212 2.80351 4.68084C3.43702 3.68956 4.34086 2.90017 5.40839 2.40583C6.47591 1.91148 7.66256 1.73281 8.82831 1.89089C9.99407 2.04897 11.0903 2.53721 11.9876 3.298C12.8849 4.05878 13.5459 5.06036 13.8926 6.18456C14.2392 7.30875 14.257 8.50865 13.944 9.64265C13.6309 10.7767 13 11.7975 12.1257 12.5846C11.2514 13.3717 10.1702 13.8923 9.00967 14.085M6.98501 14.0837L6.98434 10.747H5.71967C5.61359 10.747 5.51185 10.7049 5.43683 10.6299C5.36182 10.5549 5.31967 10.4531 5.31967 10.347V9.12169C5.31967 9.01561 5.36182 8.91386 5.43683 8.83885C5.51185 8.76383 5.61359 8.72169 5.71967 8.72169H6.98434V6.63369C6.98434 6.10326 7.19505 5.59455 7.57013 5.21948C7.9452 4.84441 8.45391 4.63369 8.98434 4.63369H10.191C10.3678 4.63369 10.5374 4.70393 10.6624 4.82895C10.7874 4.95398 10.8577 5.12355 10.8577 5.30036V5.99369C10.8577 6.1705 10.7874 6.34007 10.6624 6.4651C10.5374 6.59012 10.3678 6.66036 10.191 6.66036H9.67634C9.49953 6.66036 9.32996 6.7306 9.20494 6.85562C9.07991 6.98064 9.00967 7.15021 9.00967 7.32702V8.72169H10.541C10.5991 8.72169 10.6564 8.73432 10.7091 8.75872C10.7618 8.78311 10.8085 8.81868 10.8461 8.86296C10.8837 8.90724 10.9111 8.95916 10.9266 9.01513C10.9421 9.07109 10.9452 9.12974 10.9357 9.18702L10.769 10.1897C10.7431 10.3454 10.6629 10.4868 10.5425 10.5889C10.4221 10.6909 10.2695 10.747 10.1117 10.747H9.00967V14.085" stroke="white" stroke-linecap="round"/>
    </svg>
    