<svg width="16" height="16" viewBox="0 0 16 16" fill="none" xmlns="http://www.w3.org/2000/svg">
    <path d="M12.5623 5.25C12.4707 6.52094 11.5279 7.5 10.4998 7.5C9.47163 7.5 8.52725 6.52125 8.43725 5.25C8.3435 3.92781 9.26131 3 10.4998 3C11.7382 3 12.656 3.95187 12.5623 5.25Z" stroke="white" stroke-linecap="round" stroke-linejoin="round"/>
    <path d="M10.5 9.5C8.46344 9.5 6.505 10.5116 6.01437 12.4816C5.94937 12.7422 6.11281 13 6.38062 13H14.6197C14.8875 13 15.05 12.7422 14.9859 12.4816C14.4953 10.48 12.5369 9.5 10.5 9.5Z" stroke="white" stroke-miterlimit="10"/>
    <path d="M6.2503 5.81063C6.17717 6.82563 5.4153 7.625 4.59405 7.625C3.7728 7.625 3.00967 6.82594 2.9378 5.81063C2.86311 4.75469 3.60467 4 4.59405 4C5.58342 4 6.32499 4.77406 6.2503 5.81063Z" stroke="white" stroke-linecap="round" stroke-linejoin="round"/>
    <path d="M6.43781 9.56191C5.87374 9.30348 5.25249 9.2041 4.59406 9.2041C2.96906 9.2041 1.40343 10.0119 1.01124 11.5854C0.959681 11.7935 1.09031 11.9994 1.30406 11.9994H4.81281" stroke="white" stroke-miterlimit="10" stroke-linecap="round"/>
    </svg>
    