<svg width="16" height="16" viewBox="0 0 16 16" fill="none" xmlns="http://www.w3.org/2000/svg">
    <path d="M7.99967 7.59017C7.4499 7.59017 6.97901 7.39417 6.58701 7.00217C6.19501 6.61017 5.99923 6.13951 5.99967 5.59017C6.00012 5.04084 6.1959 4.56973 6.58701 4.17684C6.97812 3.78395 7.44901 3.58862 7.99967 3.59084C8.55034 3.59306 9.02123 3.78862 9.41234 4.17751C9.80345 4.56639 9.99923 5.03751 9.99967 5.59084C10.0001 6.14417 9.80434 6.61484 9.41234 7.00284C9.02034 7.39084 8.54945 7.58617 7.99967 7.59017ZM3.33301 12.4108V11.3135C3.33301 11.0384 3.41301 10.7811 3.57301 10.5415C3.73345 10.3015 3.94901 10.1153 4.21967 9.98284C4.84901 9.68106 5.47879 9.45484 6.10901 9.30417C6.73879 9.15306 7.36901 9.07751 7.99967 9.07751C8.63034 9.07751 9.26079 9.15306 9.89101 9.30417C10.5212 9.45528 11.1506 9.68151 11.779 9.98284C12.0501 10.1153 12.2657 10.3015 12.4257 10.5415C12.5861 10.7811 12.6663 11.0384 12.6663 11.3135V12.4108H3.33301ZM3.99967 11.7442H11.9997V11.3135C11.9997 11.1659 11.9519 11.0271 11.8563 10.8968C11.7612 10.7671 11.6295 10.6573 11.461 10.5675C10.9126 10.3017 10.3468 10.0982 9.76367 9.95684C9.18056 9.81551 8.59256 9.74462 7.99967 9.74417C7.40679 9.74373 6.81879 9.81439 6.23567 9.95617C5.65256 10.0979 5.08679 10.3015 4.53834 10.5668C4.36945 10.6566 4.23767 10.7664 4.14301 10.8962C4.04745 11.0264 3.99967 11.1655 3.99967 11.3135V11.7442ZM7.99967 6.92417C8.36634 6.92417 8.68034 6.79351 8.94167 6.53217C9.20301 6.27084 9.33345 5.95662 9.33301 5.58951C9.33256 5.22239 9.20212 4.90862 8.94167 4.64817C8.68123 4.38773 8.36723 4.25706 7.99967 4.25617C7.63212 4.25528 7.31834 4.38595 7.05834 4.64817C6.79834 4.91039 6.66767 5.22417 6.66634 5.58951C6.66501 5.95484 6.79567 6.26884 7.05834 6.53151C7.32101 6.79417 7.63479 6.92462 7.99967 6.92284" fill="white"/>
    </svg>
    