<svg width="16" height="16" viewBox="0 0 16 16" fill="none" xmlns="http://www.w3.org/2000/svg">
    <path fill-rule="evenodd" clip-rule="evenodd" d="M13.1429 3.39286H3.85714C3.73401 3.39286 3.61591 3.44177 3.52884 3.52884C3.44177 3.61591 3.39286 3.73401 3.39286 3.85714V13.1429C3.39286 13.266 3.44177 13.3841 3.52884 13.4712C3.61591 13.5582 3.73401 13.6071 3.85714 13.6071H13.1429C13.266 13.6071 13.3841 13.5582 13.4712 13.4712C13.5582 13.3841 13.6071 13.266 13.6071 13.1429V3.85714C13.6071 3.73401 13.5582 3.61591 13.4712 3.52884C13.3841 3.44177 13.266 3.39286 13.1429 3.39286ZM3.85714 2C3.3646 2 2.89223 2.19566 2.54394 2.54394C2.19566 2.89223 2 3.3646 2 3.85714V13.1429C2 13.6354 2.19566 14.1078 2.54394 14.4561C2.89223 14.8043 3.3646 15 3.85714 15H13.1429C13.6354 15 14.1078 14.8043 14.4561 14.4561C14.8043 14.1078 15 13.6354 15 13.1429V3.85714C15 3.3646 14.8043 2.89223 14.4561 2.54394C14.1078 2.19566 13.6354 2 13.1429 2H3.85714ZM12.2143 11.1529L9.89286 8.5L7.59371 11.1279L6.17857 9.42857L4.78571 11.1V12.2143H12.2143V11.1529ZM7.10714 8.5C7.47655 8.5 7.83083 8.35325 8.09204 8.09204C8.35325 7.83083 8.5 7.47655 8.5 7.10714C8.5 6.73773 8.35325 6.38346 8.09204 6.12224C7.83083 5.86103 7.47655 5.71429 7.10714 5.71429C6.73773 5.71429 6.38346 5.86103 6.12224 6.12224C5.86103 6.38346 5.71429 6.73773 5.71429 7.10714C5.71429 7.47655 5.86103 7.83083 6.12224 8.09204C6.38346 8.35325 6.73773 8.5 7.10714 8.5Z" fill="white"/>
    </svg>
    