<svg width="32" height="32" viewBox="0 0 32 32" fill="none" xmlns="http://www.w3.org/2000/svg">
    <path d="M16 11.05C16.5967 11.05 17.169 11.2871 17.591 11.709C18.013 12.131 18.25 12.7033 18.25 13.3C18.25 13.5955 18.1918 13.8881 18.0787 14.161C17.9657 14.434 17.7999 14.6821 17.591 14.891C17.3821 15.0999 17.134 15.2657 16.8611 15.3787C16.5881 15.4918 16.2955 15.55 16 15.55C15.4033 15.55 14.831 15.3129 14.409 14.891C13.9871 14.469 13.75 13.8967 13.75 13.3C13.75 12.7033 13.9871 12.131 14.409 11.709C14.831 11.2871 15.4033 11.05 16 11.05ZM16 7C17.6709 7 19.2733 7.66375 20.4548 8.84523C21.6363 10.0267 22.3 11.6291 22.3 13.3C22.3 18.025 16 25 16 25C16 25 9.70001 18.025 9.70001 13.3C9.70001 11.6291 10.3638 10.0267 11.5452 8.84523C12.7267 7.66375 14.3291 7 16 7ZM16 8.8C14.8065 8.8 13.6619 9.27411 12.818 10.118C11.9741 10.9619 11.5 12.1065 11.5 13.3C11.5 14.2 11.5 16 16 22.039C20.5 16 20.5 14.2 20.5 13.3C20.5 12.1065 20.0259 10.9619 19.182 10.118C18.3381 9.27411 17.1935 8.8 16 8.8Z" fill="#24A556"/>
    </svg>
    