<svg width="16" height="16" viewBox="0 0 16 16" fill="none" xmlns="http://www.w3.org/2000/svg">
    <path d="M3.55667 2.44444C3.6 3.08722 3.70833 3.71556 3.88167 4.315L3.015 5.18167C2.71889 4.315 2.53111 3.39778 2.46611 2.44444H3.55667ZM10.6778 11.1256C11.2917 11.2989 11.92 11.4072 12.5556 11.4506V12.5267C11.6022 12.4617 10.685 12.2739 9.81111 11.985L10.6778 11.1256ZM4.25 1H1.72222C1.325 1 1 1.325 1 1.72222C1 8.50389 6.49611 14 13.2778 14C13.675 14 14 13.675 14 13.2778V10.7572C14 10.36 13.675 10.035 13.2778 10.035C12.3822 10.035 11.5083 9.89056 10.6994 9.62333C10.6279 9.59662 10.5518 9.58435 10.4756 9.58722C10.2878 9.58722 10.1072 9.65944 9.96278 9.79667L8.37389 11.3856C6.32673 10.3386 4.66142 8.67327 3.61444 6.62611L5.20333 5.03722C5.40556 4.835 5.46333 4.55333 5.38389 4.30056C5.1104 3.46848 4.97143 2.59809 4.97222 1.72222C4.97222 1.325 4.64722 1 4.25 1Z" fill="white"/>
    </svg>
    