<svg width="32" height="32" viewBox="0 0 32 32" fill="none" xmlns="http://www.w3.org/2000/svg">
    <path fill-rule="evenodd" clip-rule="evenodd" d="M14.812 7.00025H14.7953C14.6998 7.00025 14.6261 7.00025 14.5558 7.00444C14.1208 7.03088 13.7023 7.18023 13.3488 7.43514C12.9953 7.69004 12.7215 8.04003 12.5591 8.44442C12.5331 8.50888 12.5097 8.57837 12.4795 8.66962L12.4745 8.68553L12.4527 8.74999L12.4285 8.82116C12.2945 9.1912 11.85 9.50012 11.3794 9.51184L9.85572 9.58719C9.19767 9.66421 8.63423 9.82831 8.15786 10.2159C7.99243 10.3523 7.84047 10.5043 7.70409 10.6697C7.31647 11.1469 7.15153 11.7095 7.07451 12.3684C7 13.0046 7 13.8042 7 14.7962V14.8615C7 15.0993 7 15.322 7.01926 15.5095C7.04019 15.7172 7.08874 15.9382 7.22019 16.1508C7.26372 16.22 7.31256 16.2853 7.3667 16.3467C7.50819 16.5066 7.67228 16.6104 7.83721 16.6866C7.83972 18.0395 7.8573 19.4058 7.9787 20.5762C8.04986 21.2627 8.1587 21.9066 8.332 22.4558C8.50195 22.9957 8.75312 23.5073 9.15163 23.8606C9.84065 24.4734 10.7088 24.7438 11.7913 24.8736C12.8546 25 14.2176 25 15.9573 25H16.0427C17.7824 25 19.1454 25 20.2087 24.8727C21.2912 24.7438 22.1593 24.4734 22.8484 23.8606C23.2469 23.5073 23.498 22.9957 23.6688 22.4558C23.8413 21.9066 23.9501 21.2627 24.0213 20.5762C24.1427 19.4058 24.1603 18.0395 24.1628 16.6866C24.4172 16.5738 24.6319 16.3871 24.779 16.1508C24.9113 15.9382 24.9598 15.7172 24.9807 15.5095C25 15.322 25 15.0993 25 14.8615V14.7962C25 13.8042 25 13.0046 24.9247 12.3684C24.8476 11.7095 24.6835 11.1461 24.2959 10.6697C24.1595 10.5043 24.0076 10.3523 23.8421 10.2159C23.3649 9.82831 22.8023 9.66338 22.1434 9.58636L20.6214 9.51184C20.1509 9.50012 19.7063 9.1912 19.5724 8.82116L19.5481 8.74999L19.5213 8.66879C19.4912 8.57921 19.4686 8.50888 19.4418 8.44358C19.2792 8.03935 19.0053 7.68954 18.6519 7.43479C18.2984 7.18004 17.8799 7.03081 17.445 7.00444C17.3655 7.00078 17.286 6.99938 17.2064 7.00025H14.812ZM12.292 10.7676H19.7088C20.7319 10.7676 21.4486 10.7693 21.9969 10.8338C22.5378 10.8974 22.8333 11.0146 23.0493 11.1904C23.1498 11.2719 23.2405 11.3626 23.3214 11.4625C23.4972 11.6785 23.6144 11.974 23.678 12.5149C23.7433 13.0691 23.7442 13.7949 23.7442 14.8356C23.7442 15.1085 23.7442 15.2667 23.7316 15.3831C23.7297 15.4187 23.7232 15.4538 23.7124 15.4878L23.6923 15.5154C23.6627 15.5356 23.6306 15.5519 23.5968 15.5639C23.4888 15.6092 23.3373 15.6552 23.0761 15.7331L18.7209 17.0399V16.8373C18.7209 16.2597 18.2521 15.7908 17.6744 15.7908H14.3256C13.7479 15.7908 13.2791 16.2597 13.2791 16.8373V17.0399L8.92391 15.7339C8.74777 15.6854 8.574 15.6287 8.40316 15.5639C8.3694 15.5519 8.33732 15.5356 8.30772 15.5154L13.2791 17.0399L8.28763 15.4878C8.27678 15.4538 8.27031 15.4187 8.26837 15.3831C8.25566 15.2009 8.25146 15.0182 8.25581 14.8356C8.25581 13.7949 8.25665 13.0691 8.32195 12.5149C8.38558 11.974 8.50279 11.6785 8.6786 11.4625C8.75999 11.363 8.85114 11.2718 8.9507 11.1904C9.1667 11.0146 9.46223 10.8974 10.0031 10.8338C10.5514 10.7693 11.2681 10.7676 12.292 10.7676ZM14.8112 8.25605C14.6914 8.25605 14.658 8.25605 14.6312 8.25772C14.4334 8.26977 14.2432 8.33769 14.0825 8.45358C13.9219 8.56947 13.7974 8.72858 13.7236 8.91241C13.7026 8.96853 13.683 9.0252 13.665 9.08236L13.6407 9.15352L13.6089 9.24813C13.5754 9.33966 13.5364 9.42757 13.4917 9.51184H18.5066C18.4459 9.39728 18.3961 9.27732 18.3576 9.15352L18.3341 9.08236C18.3161 9.0252 18.2966 8.96853 18.2755 8.91241C18.2017 8.72846 18.0771 8.56927 17.9163 8.45336C17.7555 8.33746 17.565 8.26961 17.3672 8.25772C17.3072 8.25555 17.2472 8.25499 17.1872 8.25605H14.8112ZM9.0947 17.096C9.10056 18.2991 9.12484 19.4544 9.22781 20.4473C9.29479 21.092 9.39191 21.642 9.52921 22.0782C9.66986 22.5219 9.83228 22.7856 9.98549 22.9221C10.3999 23.2904 10.9717 23.5106 11.9404 23.6253C12.9199 23.7425 14.2084 23.7442 16 23.7442C17.7916 23.7442 19.0793 23.7434 20.0596 23.6262C21.0283 23.5106 21.6001 23.2896 22.0145 22.9221C22.1677 22.7856 22.3301 22.5219 22.4708 22.0782C22.6081 21.6428 22.7052 21.092 22.7722 20.4473C22.8752 19.4544 22.8994 18.2982 22.9053 17.096L18.7209 18.351V18.6473C18.7209 19.0743 18.4606 19.4594 18.0629 19.6185L17.4768 19.8529C16.5288 20.2321 15.4712 20.2321 14.5232 19.8529L13.9371 19.6185C13.743 19.5409 13.5765 19.4069 13.4592 19.2338C13.3419 19.0607 13.2792 18.8564 13.2791 18.6473V18.351L9.0947 17.096ZM14.5349 17.0466V18.505L14.9895 18.6867C15.6383 18.9462 16.3625 18.9462 17.0105 18.6867L17.4651 18.505V17.0466H14.5349Z" fill="#24A556"/>
    </svg>
    