<svg width="18" height="18" viewBox="0 0 18 18" fill="none" xmlns="http://www.w3.org/2000/svg">
    <path fill-rule="evenodd" clip-rule="evenodd" d="M14.235 6.94012C13.9515 6.22163 13.5234 5.56904 12.9773 5.0228C12.4312 4.47656 11.7787 4.04832 11.0603 3.76462C10.8906 3.95719 10.7551 4.17736 10.6598 4.41562C11.3314 4.6598 11.9414 5.04824 12.4468 5.5536C12.9521 6.05895 13.3406 6.66894 13.5848 7.34061C13.823 7.24522 14.0432 7.10977 14.2358 6.94012M9.17175 4.12761L9 4.12537C8.02854 4.12537 7.07922 4.41561 6.27385 4.95887C5.46848 5.50212 4.84378 6.27361 4.4799 7.17436C4.11602 8.0751 4.02956 9.06403 4.2316 10.0143C4.43365 10.9645 4.91498 11.8327 5.61386 12.5074C6.31273 13.1822 7.19727 13.6328 8.154 13.8014C9.11073 13.97 10.096 13.8489 10.9834 13.4536C11.8709 13.0584 12.62 12.407 13.1346 11.5831C13.6493 10.7591 13.9061 9.80024 13.872 8.82937C14.13 8.74837 14.374 8.64212 14.604 8.51062C14.6175 8.67212 14.6245 8.83537 14.625 9.00037C14.6249 10.1338 14.2825 11.2407 13.6425 12.1761C13.0025 13.1116 12.0949 13.8318 11.0386 14.2426C9.98224 14.6534 8.82645 14.7354 7.72266 14.4781C6.61888 14.2207 5.61859 13.6359 4.85287 12.8003C4.08715 11.9646 3.59172 10.9172 3.43149 9.79518C3.27127 8.67317 3.45373 7.52892 3.95497 6.51239C4.4562 5.49585 5.25283 4.65444 6.24046 4.09842C7.2281 3.54239 8.36066 3.29768 9.48975 3.39636C9.35776 3.62833 9.2509 3.87372 9.171 4.12837" fill="white"/>
    <path d="M12.75 7.5C13.9926 7.5 15 6.49264 15 5.25C15 4.00736 13.9926 3 12.75 3C11.5074 3 10.5 4.00736 10.5 5.25C10.5 6.49264 11.5074 7.5 12.75 7.5Z" fill="white"/>
    </svg>
    