<svg width="32" height="33" viewBox="0 0 32 33" fill="none" xmlns="http://www.w3.org/2000/svg">
    <path d="M19.5866 9.44637C19.7102 9.56972 19.8083 9.71624 19.8752 9.87754C19.9421 10.0388 19.9766 10.2117 19.9766 10.3864C19.9766 10.561 19.9421 10.7339 19.8752 10.8952C19.8083 11.0565 19.7102 11.203 19.5866 11.3264L14.4133 16.4997L19.5866 21.673C19.8359 21.9223 19.976 22.2605 19.976 22.613C19.976 22.9656 19.8359 23.3037 19.5866 23.553C19.3373 23.8023 18.9992 23.9424 18.6466 23.9424C18.2941 23.9424 17.9559 23.8023 17.7066 23.553L11.5866 17.433C11.463 17.3097 11.365 17.1632 11.2981 17.0019C11.2312 16.8406 11.1967 16.6677 11.1967 16.493C11.1967 16.3184 11.2312 16.1455 11.2981 15.9842C11.365 15.8229 11.463 15.6764 11.5866 15.553L17.7066 9.43304C18.2133 8.92637 19.0666 8.92637 19.5866 9.44637Z" fill="#24A556"/>
    </svg>
    