<svg width="32" height="32" viewBox="0 0 32 32" fill="none" xmlns="http://www.w3.org/2000/svg">
    <path fill-rule="evenodd" clip-rule="evenodd" d="M25.3067 12.3375C24.8026 11.0602 24.0416 9.90002 23.0707 8.92893C22.0998 7.95784 20.9399 7.19652 19.6627 6.69216C19.3611 7.03451 19.1203 7.42593 18.9507 7.84949C20.1448 8.28359 21.2292 8.97416 22.1276 9.87257C23.026 10.771 23.7166 11.8554 24.1507 13.0495C24.5742 12.8799 24.9657 12.6391 25.308 12.3375M16.3053 7.33749L16 7.33349C14.273 7.33349 12.5853 7.84949 11.1535 8.81528C9.72174 9.78106 8.61117 11.1526 7.96427 12.7539C7.31738 14.3553 7.16366 16.1133 7.52285 17.8026C7.88204 19.4919 8.73774 21.0354 9.98019 22.235C11.2226 23.4346 12.7952 24.2356 14.496 24.5353C16.1969 24.835 17.9485 24.6197 19.5261 23.9171C21.1038 23.2144 22.4355 22.0564 23.3505 20.5917C24.2654 19.1269 24.7219 17.4222 24.6613 15.6962C25.12 15.5522 25.5538 15.3633 25.9627 15.1295C25.9867 15.4166 25.9991 15.7068 26 16.0002C25.9999 18.0151 25.3911 19.983 24.2534 21.646C23.1156 23.3089 21.5021 24.5895 19.6241 25.3197C17.7462 26.0499 15.6915 26.1958 13.7292 25.7383C11.7669 25.2807 9.9886 24.2411 8.62732 22.7555C7.26604 21.27 6.38527 19.4079 6.10043 17.4132C5.81559 15.4185 6.13997 13.3843 7.03106 11.5771C7.92214 9.76991 9.33837 8.27407 11.0942 7.28558C12.85 6.29709 14.8634 5.86206 16.8707 6.03749C16.636 6.44987 16.4461 6.88612 16.304 7.33883" fill="#24A556"/>
    <path d="M22.6667 13.3335C24.8758 13.3335 26.6667 11.5426 26.6667 9.3335C26.6667 7.12436 24.8758 5.3335 22.6667 5.3335C20.4575 5.3335 18.6667 7.12436 18.6667 9.3335C18.6667 11.5426 20.4575 13.3335 22.6667 13.3335Z" fill="#24A556"/>
    </svg>
    