<svg width="16" height="16" viewBox="0 0 16 16" fill="none" xmlns="http://www.w3.org/2000/svg">
    <path fill-rule="evenodd" clip-rule="evenodd" d="M7.07624 1.0002H7.06322C6.98899 1.0002 6.93169 1.0002 6.87699 1.00345C6.53866 1.02402 6.21312 1.14018 5.93821 1.33844C5.66329 1.5367 5.45029 1.80891 5.32397 2.12344C5.30378 2.17357 5.28555 2.22762 5.2621 2.2986L5.2582 2.31097L5.24127 2.36111L5.22238 2.41646C5.1182 2.70426 4.77243 2.94454 4.40648 2.95366L3.22136 3.01226C2.70955 3.07217 2.27131 3.19979 1.9008 3.50128C1.77213 3.60735 1.65395 3.72553 1.54787 3.8542C1.24638 4.22536 1.1181 4.66294 1.0582 5.17539C1.00024 5.67027 1.00024 6.29212 1.00024 7.06374V7.11453C1.00024 7.29946 1.00024 7.47266 1.01522 7.61852C1.0315 7.78001 1.06927 7.95191 1.1715 8.11731C1.20536 8.17113 1.24334 8.22192 1.28545 8.26968C1.3955 8.39405 1.52313 8.47479 1.65141 8.53404C1.65336 9.58631 1.66703 10.649 1.76145 11.5593C1.8168 12.0933 1.90145 12.594 2.03624 13.0211C2.16843 13.4411 2.36378 13.839 2.67373 14.1138C3.20964 14.5904 3.8849 14.8007 4.72685 14.9017C5.55383 15 6.61392 15 7.96704 15H8.03345C9.38657 15 10.4467 15 11.2736 14.901C12.1156 14.8007 12.7908 14.5904 13.3268 14.1138C13.6367 13.839 13.8321 13.4411 13.9649 13.0211C14.099 12.594 14.1837 12.0933 14.239 11.5593C14.3335 10.649 14.3471 9.58631 14.3491 8.53404C14.547 8.44625 14.7139 8.30107 14.8283 8.11731C14.9312 7.95191 14.969 7.78001 14.9853 7.61852C15.0002 7.47266 15.0002 7.29946 15.0002 7.11453V7.06374C15.0002 6.29212 15.0002 5.67027 14.9416 5.17539C14.8817 4.66294 14.7541 4.22471 14.4526 3.8542C14.3465 3.72553 14.2284 3.60735 14.0997 3.50128C13.7285 3.19979 13.2909 3.07152 12.7785 3.01161L11.5947 2.95366C11.2287 2.94454 10.8829 2.70426 10.7788 2.41646L10.7599 2.36111L10.739 2.29795C10.7156 2.22827 10.698 2.17357 10.6772 2.12278C10.5507 1.80838 10.3377 1.53631 10.0628 1.33817C9.78789 1.14003 9.4624 1.02396 9.12415 1.00345C9.06233 1.0006 9.00045 0.999517 8.93857 1.0002H7.07624ZM5.11624 3.93039H10.8849C11.6806 3.93039 12.238 3.93169 12.6645 3.98183C13.0852 4.03132 13.315 4.12248 13.483 4.25922C13.5612 4.3226 13.6317 4.39314 13.6947 4.47084C13.8314 4.63884 13.9226 4.8687 13.9721 5.28934C14.0228 5.72041 14.0235 6.28496 14.0235 7.09434C14.0235 7.30662 14.0235 7.42969 14.0137 7.5202C14.0122 7.54786 14.0072 7.57521 13.9988 7.60159L13.9831 7.62308C13.9601 7.63879 13.9352 7.65149 13.9089 7.66085C13.8249 7.69601 13.707 7.73182 13.5039 7.79238L10.1165 8.80883V8.65125C10.1165 8.20196 9.75187 7.83731 9.30257 7.83731H6.69792C6.24862 7.83731 5.88397 8.20196 5.88397 8.65125V8.80883L2.49662 7.79303C2.35962 7.75531 2.22447 7.7112 2.09159 7.66085C2.06533 7.65149 2.04039 7.63879 2.01736 7.62308L5.88397 8.80883L2.00173 7.60159C1.9933 7.57521 1.98827 7.54786 1.98676 7.5202C1.97687 7.37848 1.97361 7.23637 1.97699 7.09434C1.97699 6.28496 1.97764 5.72041 2.02843 5.28934C2.07792 4.8687 2.16908 4.63884 2.30583 4.47084C2.36913 4.39341 2.44002 4.32252 2.51745 4.25922C2.68545 4.12248 2.91531 4.03132 3.33597 3.98183C3.76248 3.93169 4.31987 3.93039 5.11624 3.93039ZM7.07559 1.97693C6.98248 1.97693 6.95643 1.97693 6.93559 1.97823C6.78181 1.9876 6.63384 2.04042 6.50889 2.13056C6.38393 2.2207 6.28713 2.34445 6.22973 2.48743C6.21336 2.53108 6.19816 2.57515 6.18415 2.61961L6.16527 2.67496L6.14052 2.74854C6.11448 2.81974 6.08409 2.88811 6.04936 2.95366H9.94983C9.90264 2.86455 9.86384 2.77125 9.83392 2.67496L9.81569 2.61961C9.80168 2.57515 9.78648 2.53108 9.77011 2.48743C9.71266 2.34436 9.61576 2.22054 9.49068 2.13039C9.3656 2.04025 9.21749 1.98748 9.06359 1.97823C9.01695 1.97654 8.97026 1.97611 8.92359 1.97693H7.07559ZM2.62945 8.85246C2.63401 9.78817 2.6529 10.6868 2.73299 11.459C2.78508 11.9604 2.86062 12.3882 2.96741 12.7275C3.0768 13.0726 3.20313 13.2777 3.32229 13.3838C3.64462 13.6703 4.08936 13.8416 4.84276 13.9308C5.60462 14.022 6.60676 14.0233 8.00024 14.0233C9.39373 14.0233 10.3952 14.0226 11.1577 13.9315C11.9111 13.8416 12.3559 13.6697 12.6782 13.3838C12.7974 13.2777 12.9237 13.0726 13.0331 12.7275C13.1399 12.3889 13.2154 11.9604 13.2675 11.459C13.3476 10.6868 13.3665 9.78751 13.371 8.85246L10.1165 9.82854V10.059C10.1165 10.3911 9.91401 10.6907 9.60471 10.8144L9.1489 10.9967C8.41153 11.2916 7.58896 11.2916 6.85159 10.9967L6.39578 10.8144C6.24477 10.754 6.11531 10.6498 6.02408 10.5152C5.93286 10.3805 5.88406 10.2217 5.88397 10.059V9.82854L2.62945 8.85246ZM6.86071 8.81404V9.94835L7.21429 10.0896C7.71894 10.2915 8.2822 10.2915 8.7862 10.0896L9.13978 9.94835V8.81404H6.86071Z" fill="white"/>
    </svg>
    