<svg width="32" height="32" viewBox="0 0 32 32" fill="none" xmlns="http://www.w3.org/2000/svg">
    <path d="M25.125 10.5C24.9419 13.0419 23.0562 15 21 15C18.9437 15 17.055 13.0425 16.875 10.5C16.6875 7.85562 18.5231 6 21 6C23.4769 6 25.3125 7.90375 25.125 10.5Z" stroke="#24A556" stroke-linecap="round" stroke-linejoin="round"/>
    <path d="M21 19C16.9269 19 13.01 21.0231 12.0287 24.9631C11.8987 25.4844 12.2256 26 12.7612 26H29.2394C29.775 26 30.1 25.4844 29.9719 24.9631C28.9906 20.96 25.0737 19 21 19Z" stroke="#24A556" stroke-miterlimit="10"/>
    <path d="M12.5 11.6213C12.3537 13.6513 10.83 15.25 9.18749 15.25C7.54499 15.25 6.01874 13.6519 5.87499 11.6213C5.72561 9.50938 7.20874 8 9.18749 8C11.1662 8 12.6494 9.54813 12.5 11.6213Z" stroke="#24A556" stroke-linecap="round" stroke-linejoin="round"/>
    <path d="M12.875 19.1248C11.7469 18.6079 10.5044 18.4092 9.1875 18.4092C5.9375 18.4092 2.80625 20.0248 2.02188 23.1717C1.91875 23.5879 2.18 23.9998 2.6075 23.9998H9.625" stroke="#24A556" stroke-miterlimit="10" stroke-linecap="round"/>
    </svg>
    