<svg width="24" height="24" viewBox="0 0 24 24" fill="none" xmlns="http://www.w3.org/2000/svg">
    <g clip-path="url(#clip0_957_6945)">
    <path d="M9.57386 4.52661C7.97522 5.0812 6.59654 6.13382 5.64035 7.52987C4.68416 8.92591 4.20085 10.5918 4.26142 12.2828C4.32198 13.9738 4.92323 15.6009 5.97684 16.925C7.03045 18.249 8.48089 19.2003 10.1151 19.6391C11.44 19.981 12.8281 19.996 14.1601 19.6829C15.3668 19.4118 16.4823 18.8321 17.3976 18.0004C18.3502 17.1083 19.0417 15.9735 19.3976 14.7179C19.7845 13.3524 19.8534 11.9165 19.5989 10.5204H12.1589V13.6066H16.4676C16.3815 14.0988 16.197 14.5687 15.9251 14.9879C15.6531 15.4072 15.2994 15.7672 14.8851 16.0466C14.359 16.3947 13.7659 16.6288 13.1439 16.7341C12.52 16.8501 11.8802 16.8501 11.2564 16.7341C10.6241 16.6034 10.026 16.3424 9.50011 15.9679C8.6553 15.3698 8.02096 14.5203 7.68762 13.5404C7.34863 12.5421 7.34863 11.4599 7.68762 10.4616C7.9249 9.76188 8.31716 9.12478 8.83511 8.59786C9.42785 7.9838 10.1783 7.54486 11.0041 7.32921C11.8298 7.11356 12.6991 7.12953 13.5164 7.37536C14.1548 7.57135 14.7387 7.91379 15.2214 8.37536C15.7072 7.89203 16.1922 7.40745 16.6764 6.92161C16.9264 6.66036 17.1989 6.41161 17.4451 6.14411C16.7083 5.45846 15.8435 4.92494 14.9001 4.57411C13.1822 3.95035 11.3026 3.93359 9.57386 4.52661Z" fill="white"/>
    <path d="M9.57372 4.52624C11.3023 3.93282 13.182 3.94914 14.9 4.57249C15.8435 4.9257 16.708 5.46179 17.4437 6.14999C17.1937 6.41749 16.93 6.66749 16.675 6.92749C16.19 7.41166 15.7054 7.89416 15.2212 8.37499C14.7385 7.91342 14.1547 7.57098 13.5162 7.37499C12.6992 7.1283 11.83 7.1114 11.004 7.32617C10.178 7.54094 9.42711 7.97907 8.83372 8.59249C8.31576 9.11941 7.9235 9.75652 7.68622 10.4562L5.09497 8.44999C6.02248 6.6107 7.62841 5.20377 9.57372 4.52624Z" fill="#E33629"/>
    <path d="M4.40756 10.4377C4.54684 9.74744 4.77806 9.07898 5.09506 8.4502L7.68631 10.4614C7.34733 11.4597 7.34733 12.5419 7.68631 13.5402C6.82298 14.2069 5.95923 14.8769 5.09506 15.5502C4.3015 13.9706 4.05948 12.1708 4.40756 10.4377Z" fill="#F8BD00"/>
    <path d="M12.1588 10.5186H19.5988C19.8533 11.9147 19.7844 13.3506 19.3975 14.7161C19.0416 15.9717 18.3501 17.1065 17.3975 17.9986C16.5613 17.3461 15.7213 16.6986 14.885 16.0461C15.2996 15.7664 15.6535 15.4059 15.9254 14.9862C16.1973 14.5665 16.3817 14.0962 16.4675 13.6036H12.1588C12.1575 12.5761 12.1588 11.5473 12.1588 10.5186Z" fill="#587DBD"/>
    <path d="M5.09375 15.55C5.95792 14.8834 6.82167 14.2134 7.685 13.54C8.01901 14.5203 8.65426 15.3699 9.5 15.9675C10.0275 16.3404 10.6269 16.5992 11.26 16.7275C11.8838 16.8435 12.5237 16.8435 13.1475 16.7275C13.7695 16.6223 14.3626 16.3881 14.8888 16.04C15.725 16.6925 16.565 17.34 17.4012 17.9925C16.4861 18.8247 15.3705 19.4049 14.1637 19.6763C12.8318 19.9894 11.4437 19.9744 10.1188 19.6325C9.07088 19.3528 8.09209 18.8595 7.24375 18.1838C6.34583 17.4709 5.61244 16.5725 5.09375 15.55Z" fill="#319F43"/>
    </g>
    <defs>
    <clipPath id="clip0_957_6945">
    <rect width="16" height="16" fill="white" transform="translate(4 4)"/>
    </clipPath>
    </defs>
    </svg>
    