<svg width="18" height="18" viewBox="0 0 18 18" fill="none" xmlns="http://www.w3.org/2000/svg">
    <path d="M8.99961 5.15C9.46374 5.15 9.90886 5.33437 10.237 5.66256C10.5652 5.99075 10.7496 6.43587 10.7496 6.9C10.7496 7.12981 10.7043 7.35738 10.6164 7.5697C10.5285 7.78202 10.3995 7.97493 10.237 8.13744C10.0745 8.29994 9.88162 8.42884 9.6693 8.51679C9.45699 8.60473 9.22942 8.65 8.99961 8.65C8.53548 8.65 8.09036 8.46563 7.76217 8.13744C7.43398 7.80925 7.24961 7.36413 7.24961 6.9C7.24961 6.43587 7.43398 5.99075 7.76217 5.66256C8.09036 5.33437 8.53548 5.15 8.99961 5.15ZM8.99961 2C10.2992 2 11.5455 2.51625 12.4644 3.43518C13.3834 4.3541 13.8996 5.60044 13.8996 6.9C13.8996 10.575 8.99961 16 8.99961 16C8.99961 16 4.09961 10.575 4.09961 6.9C4.09961 5.60044 4.61586 4.3541 5.53479 3.43518C6.45371 2.51625 7.70005 2 8.99961 2ZM8.99961 3.4C8.07135 3.4 7.18111 3.76875 6.52474 4.42513C5.86836 5.0815 5.49961 5.97174 5.49961 6.9C5.49961 7.6 5.49961 9 8.99961 13.697C12.4996 9 12.4996 7.6 12.4996 6.9C12.4996 5.97174 12.1309 5.0815 11.4745 4.42513C10.8181 3.76875 9.92787 3.4 8.99961 3.4Z" fill="white"/>
    </svg>
    