<svg width="32" height="33" viewBox="0 0 32 33" fill="none" xmlns="http://www.w3.org/2000/svg">
    <path d="M12.4134 9.44637C12.2898 9.56972 12.1917 9.71624 12.1248 9.87754C12.0579 10.0388 12.0234 10.2117 12.0234 10.3864C12.0234 10.561 12.0579 10.7339 12.1248 10.8952C12.1917 11.0565 12.2898 11.203 12.4134 11.3264L17.5867 16.4997L12.4134 21.673C12.1641 21.9223 12.024 22.2605 12.024 22.613C12.024 22.9656 12.1641 23.3037 12.4134 23.553C12.6627 23.8023 13.0008 23.9424 13.3534 23.9424C13.7059 23.9424 14.0441 23.8023 14.2934 23.553L20.4134 17.433C20.537 17.3097 20.635 17.1632 20.7019 17.0019C20.7688 16.8406 20.8033 16.6677 20.8033 16.493C20.8033 16.3184 20.7688 16.1455 20.7019 15.9842C20.635 15.8229 20.537 15.6764 20.4134 15.553L14.2934 9.43304C13.7867 8.92637 12.9334 8.92637 12.4134 9.44637Z" fill="#24A556"/>
    </svg>
    