<svg width="32" height="32" viewBox="0 0 32 32" fill="none" xmlns="http://www.w3.org/2000/svg">
    <path d="M16.0003 15.1803C14.9008 15.1803 13.959 14.7883 13.175 14.0043C12.391 13.2203 11.9994 12.279 12.0003 11.1803C12.0012 10.0817 12.3928 9.13946 13.175 8.35368C13.9572 7.5679 14.899 7.17723 16.0003 7.18168C17.1017 7.18612 18.0434 7.57723 18.8257 8.35501C19.6079 9.13279 19.9994 10.075 20.0003 11.1817C20.0012 12.2883 19.6097 13.2297 18.8257 14.0057C18.0417 14.7817 17.0999 15.1723 16.0003 15.1803ZM6.66699 24.8217V22.627C6.66699 22.0768 6.82699 21.5621 7.14699 21.083C7.46788 20.603 7.89899 20.2306 8.44033 19.9657C9.69899 19.3621 10.9585 18.9097 12.219 18.6083C13.4785 18.3061 14.739 18.155 16.0003 18.155C17.2617 18.155 18.5225 18.3061 19.783 18.6083C21.0434 18.9106 22.3021 19.363 23.559 19.9657C24.1012 20.2306 24.5323 20.603 24.8523 21.083C25.1732 21.5621 25.3337 22.0768 25.3337 22.627V24.8217H6.66699ZM8.00033 23.4883H24.0003V22.627C24.0003 22.3319 23.9048 22.0541 23.7137 21.7937C23.5234 21.5341 23.2599 21.3146 22.923 21.135C21.8261 20.6035 20.6945 20.1963 19.5283 19.9137C18.3621 19.631 17.1861 19.4892 16.0003 19.4883C14.8145 19.4875 13.6385 19.6288 12.4723 19.9123C11.3061 20.1959 10.1745 20.603 9.07766 21.1337C8.73988 21.3132 8.47633 21.5328 8.28699 21.7923C8.09588 22.0528 8.00033 22.331 8.00033 22.627V23.4883ZM16.0003 13.8483C16.7337 13.8483 17.3617 13.587 17.8843 13.0643C18.407 12.5417 18.6679 11.9132 18.667 11.179C18.6661 10.4448 18.4052 9.81723 17.8843 9.29634C17.3634 8.77546 16.7354 8.51412 16.0003 8.51234C15.2652 8.51057 14.6377 8.7719 14.1177 9.29634C13.5977 9.82079 13.3363 10.4483 13.3337 11.179C13.331 11.9097 13.5923 12.5377 14.1177 13.063C14.643 13.5883 15.2705 13.8492 16.0003 13.8457" fill="#24A556"/>
    </svg>
    