<svg width="32" height="32" viewBox="0 0 32 32" fill="none" xmlns="http://www.w3.org/2000/svg">
    <path d="M7.54 6C7.6 6.89 7.75 7.76 7.99 8.59L6.79 9.79C6.38 8.59 6.12 7.32 6.03 6H7.54ZM17.4 18.02C18.25 18.26 19.12 18.41 20 18.47V19.96C18.68 19.87 17.41 19.61 16.2 19.21L17.4 18.02ZM8.5 4H5C4.45 4 4 4.45 4 5C4 14.39 11.61 22 21 22C21.55 22 22 21.55 22 21V17.51C22 16.96 21.55 16.51 21 16.51C19.76 16.51 18.55 16.31 17.43 15.94C17.331 15.903 17.2256 15.886 17.12 15.89C16.86 15.89 16.61 15.99 16.41 16.18L14.21 18.38C11.3755 16.9303 9.06966 14.6245 7.62 11.79L9.82 9.59C10.1 9.31 10.18 8.92 10.07 8.57C9.69132 7.41789 9.4989 6.21274 9.5 5C9.5 4.45 9.05 4 8.5 4Z" fill="#24A556"/>
    </svg>
    