<svg width="12" height="13" viewBox="0 0 12 13" fill="none" xmlns="http://www.w3.org/2000/svg">
    <path d="M7.21997 10.0246L7.97997 10.7846L9.49997 9.26465" stroke="#24A556" stroke-linecap="round" stroke-linejoin="round"/>
    <path d="M6.08005 5.935C6.03005 5.93 5.97005 5.93 5.91505 5.935C4.72505 5.895 3.78005 4.92 3.78005 3.72C3.77505 2.495 4.77005 1.5 5.99505 1.5C7.22005 1.5 8.21505 2.495 8.21505 3.72C8.21505 4.92 7.26505 5.895 6.08005 5.935Z" stroke="#24A556" stroke-linecap="round" stroke-linejoin="round"/>
    <path d="M5.9949 11.4048C5.0849 11.4048 4.1799 11.1748 3.4899 10.7148C2.2799 9.90484 2.2799 8.58484 3.4899 7.77984C4.8649 6.85984 7.1199 6.85984 8.4949 7.77984" stroke="#24A556" stroke-linecap="round" stroke-linejoin="round"/>
    </svg>
    