<?xml version="1.0" encoding="utf-8"?>
<!-- Generator: Adobe Illustrator 25.0.0, SVG Export Plug-In . SVG Version: 6.00 Build 0)  -->
<svg version="1.1" id="Layer_1" xmlns="http://www.w3.org/2000/svg" xmlns:xlink="http://www.w3.org/1999/xlink" x="0px" y="0px"
	 viewBox="0 0 180 128.5" style="enable-background:new 0 0 180 128.5;" xml:space="preserve">
<style type="text/css">
	.Arched_x0020_Green{fill:url(#SVGID_1_);stroke:#FFFFFF;stroke-width:0.25;stroke-miterlimit:1;}
	.st0{fill:#FFFFFF;}
	.st1{fill:#BE1E2D;}
</style>
<linearGradient id="SVGID_1_" gradientUnits="userSpaceOnUse" x1="-93.8885" y1="389.2352" x2="-93.1814" y2="388.528">
	<stop  offset="0" style="stop-color:#20AC4B"/>
	<stop  offset="0.9831" style="stop-color:#19361A"/>
</linearGradient>
<g>
	<!-- <g>
		<g>
			<path class="st0" d="M564.6,96.4H186.2V32.1h378.4V96.4z"/>
		</g>
		<g>
			<path d="M564.6,96.4H186.2V32.1h378.4V96.4z M187.2,95.3h376.4V33.1H187.2V95.3z"/>
		</g>
		<g>
			<rect x="249.2" y="32.6" width="1" height="63.2"/>
		</g>
		<g>
			<rect x="312" y="32.6" width="1" height="63.2"/>
		</g>
		<g>
			<rect x="374.9" y="32.6" width="1" height="63.2"/>
		</g>
		<g>
			<rect x="437.8" y="32.6" width="1" height="63.2"/>
		</g>
		<g>
			<rect x="500.6" y="32.6" width="1" height="63.2"/>
		</g>
	</g> -->
	<g>
		<path class="st1" d="M93.1,63.1c4.2-2,5.4-4.8,5.4-12.4c0-14.4-7.6-16.8-25.7-16.8H61.5c-20.4,0-29.3,1.7-29.3,18v4.7h19.2v-4
			c0-2.4,0-3.5,5.4-3.5h16.6c5.5,0,5.9,1.4,5.9,3.6c0,2.7,0,3.6-4.7,3.6H57.2v14.7h18.9c4.3,0,4.3,1,4.3,3.6c0,2.9,0,3.4-4.1,3.4
			h-20c-5.3,0-5.5-0.8-5.5-4.1v-4.1H31.6v7.5c0,10.5,6.6,15.9,19.6,15.9H79c15.4,0,20.6-4.2,20.6-16.6
			C99.6,69.3,98.6,65.3,93.1,63.1z"/>
		<path class="st1" d="M167.5,63.1c4.2-2,5.4-4.8,5.4-12.4c0-14.4-7.6-16.8-25.7-16.8h-11.2c-20.4,0-29.3,1.7-29.3,18v4.7h19.2v-4
			c0-2.4,0-3.5,5.4-3.5h16.6c5.5,0,5.9,1.4,5.9,3.6c0,2.7,0,3.6-4.7,3.6h-17.3v14.7h18.9c4.3,0,4.3,1,4.3,3.6c0,2.9,0,3.4-4.1,3.4
			h-20c-5.3,0-5.5-0.8-5.5-4.1v-4.1H106v7.5c0,10.5,6.6,15.9,19.6,15.9h27.8c15.4,0,20.6-4.2,20.6-16.6
			C174.1,69.3,173,65.3,167.5,63.1z"/>
	</g>
	<!-- <path d="M233.4,77.3h-0.1c-1.5,3-3.2,3.8-11.7,3.8h-13.2c-8.3,0-10.5-3.7-10.5-9.8v-2.2c0-7.4,5.3-8.3,14.9-8.3h8.9
		c7.2,0,9.8,0.8,11.7,3.9h0.1v-6.2c0-5.9-3.7-6.7-12.2-6.7h-8.1c-6.9,0-8.3,1.7-8.3,4.4v1.2h-5.5v-1.6c0-6,3.8-8.4,13.7-8.4h8.7
		c10.3,0,17.2,1.5,17.2,11.3v22h-5.5V77.3z M233.4,70.3c0-4.5-4-5.1-12.5-5.1h-8.5c-7.1,0-9.1,1-9.1,5.1v1c0,3.7,1.3,5.2,8.9,5.2
		h7.3c10,0,13.9-0.7,13.9-4.8V70.3z"/>
	<path d="M260.2,60.6c0-11.9,8.3-13.2,16.4-13.2h9.2c10.3,0,14.3,4.2,14.3,11.1v0.9h-5.1v-0.8c0-5.5-3.6-6.7-9.1-6.7h-10.1
		c-5.2,0-10.1,0.8-10.1,8.9v6.9c0,7.3,4.5,9,11.2,9h9.3c5.1,0,9.4-1.5,9.4-6.9v-1.1h5.1v1c0,8.3-4.1,11.5-14.4,11.5H274
		c-4.9,0-13.7-1.3-13.7-13.2V60.6z"/>
	<path d="M329.8,48.1h5.1v4.8h0.1c2.1-4.2,6.2-5.3,10-5.3h5.2c10.3,0,13.7,3.3,13.7,11.4v3.9h-5.1v-1.4c0-8.1-1.7-9.4-11.5-9.4H344
		c-5.8,0-8.7,3.7-8.7,8v20.8h-5.5V48.1z"/>
	<path d="M385.5,60.6c0-10.8,7.6-13.3,18.1-13.3h7.9c10.5,0,18.1,2.5,18.1,13.3v7.2c0,10.8-7.6,13.3-18.1,13.3h-7.9
		c-10.5,0-18.1-2.5-18.1-13.3V60.6z M424,61c0-7.6-4.5-9.1-10.9-9.1h-11.2c-6.4,0-10.9,1.5-10.9,9.1v6.5c0,7.6,4.5,9.1,10.9,9.1
		h11.2c6.4,0,10.9-1.5,10.9-9.1V61z"/>
	<path d="M450.6,69.3h5.1v1.6c0,4,2.1,5.7,7.8,5.7h11.8c8.3,0,10.9-0.3,10.9-5.2v-0.3c0-3.1-0.9-4.9-7.5-4.9h-17
		c-7.8,0-10.7-2.5-10.7-8.7v-1.9c0-5.3,3-8.3,16.6-8.3h8.5c12.5,0,14.2,3.6,14.2,8.2v1.7h-5.1V57c0-5-3.3-5.1-9.4-5.1h-9.6
		c-7.9,0-9.6,0.8-9.6,4.5v1.2c0,2.7,0.9,4.2,6.7,4.2h14.6c8.3,0,13.9,0.8,13.9,9.7v0.1c0,9.2-8.5,9.5-15.2,9.5h-10.1
		c-8.2,0-15.8,0-15.8-9.8V69.3z"/>
	<path d="M512.7,69.3h5.1v1.6c0,4,2.1,5.7,7.8,5.7h11.8c8.3,0,10.9-0.3,10.9-5.2v-0.3c0-3.1-0.9-4.9-7.5-4.9h-17
		c-7.8,0-10.7-2.5-10.7-8.7v-1.9c0-5.3,3-8.3,16.6-8.3h8.5c12.4,0,14.2,3.6,14.2,8.2v1.7h-5.1V57c0-5-3.3-5.1-9.4-5.1h-9.6
		c-7.9,0-9.6,0.8-9.6,4.5v1.2c0,2.7,0.9,4.2,6.7,4.2h14.6c8.3,0,13.9,0.8,13.9,9.7v0.1c0,9.2-8.5,9.5-15.2,9.5h-10.1
		c-8.1,0-15.8,0-15.8-9.8V69.3z"/> -->
</g>
</svg>
