<svg width="25" height="25" viewBox="0 0 25 25" fill="none" xmlns="http://www.w3.org/2000/svg">
    <path d="M17.5511 20.78C16.5711 21.73 15.5011 21.58 14.4711 21.13C13.3811 20.67 12.3811 20.65 11.2311 21.13C9.79114 21.75 9.03114 21.57 8.17114 20.78C3.29114 15.75 4.01114 8.09 9.55114 7.81C10.9011 7.88 11.8411 8.55 12.6311 8.61C13.8111 8.37 14.9411 7.68 16.2011 7.77C17.7111 7.89 18.8511 8.49 19.6011 9.57C16.4811 11.44 17.2211 15.55 20.0811 16.7C19.5111 18.2 18.7711 19.69 17.5411 20.79L17.5511 20.78ZM12.5311 7.75C12.3811 5.52 14.1911 3.68 16.2711 3.5C16.5611 6.08 13.9311 8 12.5311 7.75Z" fill="white"/>
    </svg>
    