<svg width="24" height="24" viewBox="0 0 24 24" fill="none" xmlns="http://www.w3.org/2000/svg">
    <path opacity="0.1"
        d="M12 0C5.37258 0 0 5.37258 0 12C0 18.6274 5.37258 24 12 24C18.6274 24 24 18.6274 24 12C23.9923 5.37578 18.6242 0.00771476 12 0Z"
        fill="white" />
    <path
        d="M18.927 8.2L12.082 17.489C11.9188 17.7056 11.6753 17.8475 11.4064 17.8829C11.1375 17.9182 10.8657 17.844 10.652 17.677L5.764 13.769C5.33267 13.4238 5.26282 12.7943 5.608 12.363C5.95318 11.9317 6.58267 11.8618 7.014 12.207L11.09 15.468L17.317 7.017C17.5212 6.71059 17.8773 6.54118 18.2438 6.57604C18.6104 6.61089 18.9281 6.84437 19.0709 7.18377C19.2137 7.52317 19.1584 7.91358 18.927 8.2Z"
        fill="white" />
</svg>