<svg width="234" height="45" viewBox="0 0 234 45" fill="none" xmlns="http://www.w3.org/2000/svg">
    <path
        d="M2.35327 34.3249V11.4308H8.5077C10.0655 11.4308 11.4807 11.6662 12.7533 12.137C14.0259 12.6078 15.0406 13.4289 15.7976 14.6005C16.5545 15.7611 16.933 17.376 16.933 19.4454C16.933 20.9454 16.6478 22.3633 16.0773 23.699C15.5069 25.0238 14.6073 26.1023 13.3786 26.9344C12.1609 27.7665 10.5811 28.1826 8.63935 28.1826H6.59884V34.3249H2.35327ZM8.24441 14.7483H6.59884V24.7337H8.34315C9.79125 24.7337 10.8773 24.3012 11.6014 23.4363C12.3254 22.5713 12.6874 21.3176 12.6874 19.6753C12.6874 18.0001 12.3583 16.7629 11.7001 15.9636C11.0419 15.1534 9.88998 14.7483 8.24441 14.7483ZM34.6407 34.3249H29.5394L23.6482 26.0476V34.3249H19.4685V11.4308H25.8533C27.4111 11.4308 28.8044 11.6607 30.033 12.1206C31.2617 12.5695 32.2326 13.325 32.9457 14.387C33.6589 15.449 34.0153 16.8943 34.0153 18.7228C34.0153 19.7191 33.8452 20.7483 33.5052 21.8103C33.1761 22.8614 32.6221 23.8031 31.8432 24.6352C31.0752 25.4673 30.033 26.0476 28.7166 26.376L34.6407 34.3249ZM23.6482 23.9782H25.3925C26.3579 23.9782 27.1642 23.7538 27.8115 23.3049C28.4697 22.845 28.9634 22.2483 29.2925 21.5147C29.6326 20.7702 29.8027 19.9709 29.8027 19.1169C29.8027 17.6388 29.4626 16.5384 28.7824 15.8158C28.1022 15.0823 26.9394 14.7155 25.2938 14.7155H23.6482V23.9782ZM37.732 34.3249V11.4308H41.9447V34.3249H37.732ZM52.7409 34.4399L43.6245 11.4308H48.1992L51.8194 21.5147L53.0865 25.3414L54.3536 21.5147L57.8422 11.4308H62.3511L53.2675 34.4399H52.7409ZM59.3199 34.3249L69.0288 11.0366H69.3579L79.0997 34.3249H74.6237L73.3402 31.0074H65.1452L63.9275 34.3249H59.3199ZM68.6339 21.5804L66.3301 27.8213H72.1225L69.7199 21.5804L69.1604 19.741L68.6339 21.5804ZM88.1371 34.7191C86.9411 34.7191 85.7892 34.4783 84.6814 33.9965C83.5733 33.5038 82.5751 32.7647 81.6865 31.7793C80.8088 30.783 80.112 29.5184 79.5966 27.9855C79.0809 26.4527 78.8232 24.6461 78.8232 22.5658C78.8232 20.0695 79.2563 17.9673 80.1232 16.2592C81.0006 14.5403 82.169 13.2428 83.6283 12.3669C85.0981 11.4801 86.722 11.0366 88.4992 11.0366C89.7057 11.0366 90.6878 11.1516 91.4447 11.3815C92.2126 11.6114 92.8214 11.8852 93.2713 12.2027C93.7321 12.5202 94.105 12.8103 94.3903 13.0731L92.5473 16.522C92.0753 16.0074 91.5872 15.5968 91.0827 15.2903C90.5779 14.9727 89.7715 14.814 88.6637 14.814C87.5447 14.814 86.5903 15.137 85.8004 15.783C85.0214 16.429 84.4234 17.3213 84.0068 18.46C83.6006 19.5877 83.3979 20.8797 83.3979 22.3359C83.3979 25.1936 83.8751 27.3505 84.8296 28.8067C85.7948 30.2519 86.9523 30.9746 88.3017 30.9746C89.3437 30.9746 90.2323 30.8268 90.9675 30.5311C91.7024 30.2355 92.2511 29.9016 92.6131 29.5293L94.4232 32.7811C94.1158 33.0331 93.7044 33.3123 93.189 33.6187C92.6842 33.9144 92.0207 34.1715 91.1979 34.3906C90.386 34.6097 89.3657 34.7191 88.1371 34.7191ZM101.371 34.3249V25.0786L94.1306 11.4308H98.7711L103.593 21.3833L108.217 11.4308H112.824L105.584 25.3742V34.3249H101.371Z"
        fill="#010205" />
    <path
        d="M114.212 34.3249V11.4308H120.136C123.461 11.4308 126.022 12.3614 127.821 14.2228C129.631 16.0731 130.536 18.8651 130.536 22.5987C130.536 24.9855 130.136 27.0603 129.335 28.8231C128.534 30.5749 127.355 31.9326 125.797 32.8961C124.25 33.8487 122.352 34.3249 120.104 34.3249H114.212ZM120.005 14.7155H118.458V30.7118H120.005C121.211 30.7118 122.215 30.4874 123.016 30.0384C123.817 29.5786 124.453 28.9709 124.925 28.2155C125.408 27.449 125.748 26.5895 125.945 25.637C126.154 24.6735 126.258 23.6935 126.258 22.6972C126.258 21.3176 126.066 20.0202 125.682 18.8049C125.298 17.5895 124.651 16.6041 123.74 15.8487C122.83 15.0932 121.585 14.7155 120.005 14.7155ZM141.438 34.752C139.936 34.752 138.564 34.4948 137.324 33.9801C136.096 33.4545 135.114 32.5676 134.379 31.3195C133.644 30.0604 133.276 28.3359 133.276 26.1461V11.4308H137.555V26.606C137.555 27.8979 137.763 28.8724 138.18 29.5293C138.608 30.1753 139.118 30.6133 139.711 30.8432C140.303 31.0622 140.857 31.1717 141.373 31.1717C141.91 31.1717 142.464 31.0622 143.035 30.8432C143.616 30.6242 144.104 30.1917 144.499 29.5457C144.894 28.8888 145.092 27.9089 145.092 26.606V11.4308H149.37V26.1461C149.37 28.3359 149.014 30.0604 148.3 31.3195C147.588 32.5676 146.627 33.4545 145.421 33.9801C144.225 34.4948 142.898 34.752 141.438 34.752ZM161.419 34.7191C160.223 34.7191 159.071 34.4783 157.963 33.9965C156.855 33.5038 155.857 32.7647 154.968 31.7793C154.09 30.783 153.394 29.5184 152.878 27.9855C152.363 26.4527 152.105 24.6461 152.105 22.5658C152.105 20.0695 152.538 17.9673 153.405 16.2592C154.283 14.5403 155.451 13.2428 156.91 12.3669C158.38 11.4801 160.004 11.0366 161.781 11.0366C162.988 11.0366 163.969 11.1516 164.726 11.3815C165.494 11.6114 166.103 11.8852 166.553 12.2027C167.014 12.5202 167.387 12.8103 167.672 13.0731L165.829 16.522C165.357 16.0074 164.869 15.5968 164.364 15.2903C163.86 14.9727 163.054 14.814 161.945 14.814C160.826 14.814 159.872 15.137 159.082 15.783C158.303 16.429 157.705 17.3213 157.288 18.46C156.883 19.5877 156.68 20.8797 156.68 22.3359C156.68 25.1936 157.157 27.3505 158.111 28.8067C159.077 30.2519 160.234 30.9746 161.583 30.9746C162.626 30.9746 163.514 30.8268 164.249 30.5311C164.984 30.2355 165.533 29.9016 165.895 29.5293L167.705 32.7811C167.398 33.0331 166.986 33.3123 166.471 33.6187C165.966 33.9144 165.302 34.1715 164.48 34.3906C163.668 34.6097 162.647 34.7191 161.419 34.7191ZM170.677 34.3249V11.4308H174.857V22.8286L182.163 11.4308H187.001L179.184 22.7957L187.527 34.3249H182.262L174.857 23.3377V34.3249H170.677Z"
        fill="url(#paint0_linear_1228_11627)" />
    <path d="M208.156 9.32715H210.22" stroke="url(#paint1_linear_1228_11627)" />
    <path d="M212.87 9.32715H214.938" stroke="url(#paint2_linear_1228_11627)" />
    <path
        d="M208.73 18.4569L218.771 18.604M218.771 18.604H232.906C232.906 18.604 232.829 17.0091 231.449 15.8086C230.069 14.608 221.398 13.452 218.905 7.42236C221.033 12.5693 220.679 15.5437 218.771 18.604Z"
        stroke="url(#paint3_linear_1228_11627)" stroke-width="2" />
    <path d="M222.308 14.0352L223.34 14.9179" stroke="url(#paint4_linear_1228_11627)" />
    <path
        d="M211.517 10.6251C212.312 10.6251 212.957 9.98169 212.957 9.18803C212.957 8.39437 212.312 7.75098 211.517 7.75098C210.722 7.75098 210.077 8.39437 210.077 9.18803C210.077 9.98169 210.722 10.6251 211.517 10.6251Z"
        stroke="url(#paint5_linear_1228_11627)" />
    <path
        d="M211.664 8.98256C211.958 8.98256 212.196 8.74512 212.196 8.45222C212.196 8.15932 211.958 7.92188 211.664 7.92188C211.371 7.92188 211.133 8.15932 211.133 8.45222C211.133 8.74512 211.371 8.98256 211.664 8.98256Z"
        stroke="url(#paint6_linear_1228_11627)" stroke-width="0.5" />
    <path
        d="M219.035 18.606H212.843C212.843 18.606 216.529 21.5486 217.413 30.0819C218.298 38.6152 214.76 43.0291 214.76 43.0291L195.596 23.4612C195.596 23.4612 195.366 15.3717 195.596 11.9853C195.825 8.59891 200.211 2.09281 207.14 1.97421C214.068 1.8556 217.164 4.77131 218.785 7.41922C220.407 10.0671 220.554 11.5391 219.817 11.6852"
        stroke="url(#paint7_linear_1228_11627)" stroke-width="2" />
    <defs>
        <linearGradient id="paint0_linear_1228_11627" x1="187.595" y1="19.9893" x2="117.599" y2="12.4687"
            gradientUnits="userSpaceOnUse">
            <stop stop-color="#77B248" />
            <stop offset="1" stop-color="#24A556" />
        </linearGradient>
        <linearGradient id="paint1_linear_1228_11627" x1="nan" y1="nan" x2="nan" y2="nan"
            gradientUnits="userSpaceOnUse">
            <stop stop-color="#77B248" />
            <stop offset="1" stop-color="#24A556" />
        </linearGradient>
        <linearGradient id="paint2_linear_1228_11627" x1="nan" y1="nan" x2="nan" y2="nan"
            gradientUnits="userSpaceOnUse">
            <stop stop-color="#77B248" />
            <stop offset="1" stop-color="#24A556" />
        </linearGradient>
        <linearGradient id="paint3_linear_1228_11627" x1="232.922" y1="17.8603" x2="219.664" y2="11.5136"
            gradientUnits="userSpaceOnUse">
            <stop stop-color="#77B248" />
            <stop offset="1" stop-color="#24A556" />
        </linearGradient>
        <linearGradient id="paint4_linear_1228_11627" x1="222.824" y1="14.0352" x2="222.824" y2="14.9179"
            gradientUnits="userSpaceOnUse">
            <stop stop-color="#77B248" />
            <stop offset="1" stop-color="#24A556" />
        </linearGradient>
        <linearGradient id="paint5_linear_1228_11627" x1="211.517" y1="7.42252" x2="211.517" y2="10.9535"
            gradientUnits="userSpaceOnUse">
            <stop stop-color="#77B248" />
            <stop offset="1" stop-color="#24A556" />
        </linearGradient>
        <linearGradient id="paint6_linear_1228_11627" x1="211.664" y1="7.71658" x2="211.664" y2="9.18785"
            gradientUnits="userSpaceOnUse">
            <stop stop-color="#77B248" />
            <stop offset="1" stop-color="#24A556" />
        </linearGradient>
        <linearGradient id="paint7_linear_1228_11627" x1="198.426" y1="-6.12128" x2="212.684" y2="18.4733"
            gradientUnits="userSpaceOnUse">
            <stop offset="0.400858" stop-color="#77B248" />
            <stop offset="1" stop-color="#24A556" />
        </linearGradient>
    </defs>
</svg>