<svg width="118" height="87" viewBox="0 0 118 87" fill="none" xmlns="http://www.w3.org/2000/svg"><path fill-rule="evenodd" clip-rule="evenodd" d="M58.075 9.51011C51.9678 1.76049 43.4114 -1.19626 36.1201 0.432935C28.7066 2.08942 23.1306 8.38843 23.1306 17.8321C23.1306 32.3758 31.8701 42.4214 42.1417 49.6935C37.1746 54.17 33.4026 59.3803 31.1514 64.4358C30.9138 64.9694 30.6918 65.5043 30.4864 66.0393H2.59337C1.21853 66.0393 0.104004 67.1462 0.104004 68.5115C0.104004 69.8768 1.21853 70.9836 2.59337 70.9836H29.0805C28.7363 72.9076 28.6544 74.7821 28.8815 76.547C29.3749 80.3819 31.3492 83.6997 35.0865 85.5554C39.0671 87.5319 42.8983 87.3547 46.3019 85.7841C49.5822 84.2704 52.3497 81.525 54.6071 78.5292C56.3769 76.1805 57.9228 73.5564 59.226 70.9836H114.615C115.989 70.9836 117.104 69.8768 117.104 68.5115C117.104 67.1462 115.989 66.0393 114.615 66.0393H61.4883C62.3575 63.9312 63.0234 62.036 63.4726 60.586C64.5952 56.9629 65.9028 50.0312 66.1836 42.1345C66.7218 41.9663 67.2431 41.814 67.7473 41.677C71.158 40.7506 73.624 40.5728 75.2403 40.8297C76.796 41.077 77.2375 41.6437 77.4024 42.0455C77.6377 42.6187 77.7143 43.8301 76.8403 45.9378C75.7173 48.6458 75.148 51.1269 75.6889 53.1078C75.9908 54.2131 76.6483 55.1828 77.688 55.8009C78.6713 56.3855 79.7543 56.5122 80.6976 56.4535C82.5296 56.3396 84.5331 55.4878 86.3775 54.3845C88.2824 53.2451 90.2679 51.6861 92.1045 49.8623C93.7561 48.2221 95.4514 46.7258 97.0466 45.5533C98.675 44.3564 100.055 43.6049 101.088 43.3001C101.591 43.1516 101.897 43.1438 102.05 43.1627C102.153 43.1756 102.173 43.1954 102.185 43.2076C102.29 43.3069 102.789 43.974 102.789 46.2601C102.789 50.497 103.929 53.8267 106.999 55.0466C108.391 55.5995 109.825 55.5385 111.038 55.2877C112.26 55.035 113.445 54.5512 114.483 54.0357C115.713 53.4251 116.211 51.9402 115.597 50.719C114.982 49.4978 113.486 49.0029 112.257 49.6134C111.428 50.025 110.668 50.3138 110.023 50.4473C109.368 50.5827 109.013 50.5215 108.849 50.4561C108.792 50.4341 107.768 50.0319 107.768 46.2601C107.768 43.6031 107.253 41.1775 105.627 39.6353C103.834 37.935 101.511 38.0171 99.669 38.5607C97.8238 39.1055 95.8983 40.2462 94.0848 41.5791C92.2381 42.9363 90.3552 44.6072 88.584 46.3661C86.9977 47.9415 85.3268 49.2411 83.8087 50.1492C82.5709 50.8896 81.5743 51.2859 80.8848 51.4422C80.6579 51.4936 80.457 51.3145 80.4813 51.0832C80.5482 50.4491 80.7867 49.4053 81.4439 47.8206C82.531 45.1991 82.9658 42.501 82.0128 40.1792C80.9894 37.6859 78.6961 36.3718 76.0273 35.9476C73.419 35.533 70.1707 35.8929 66.4337 36.908C66.3599 36.928 66.2857 36.9484 66.2113 36.969C65.9673 27.5512 64.0194 17.0532 58.075 9.51011ZM56.0753 66.0393C57.2696 63.3734 58.164 60.9074 58.7141 59.132C59.6076 56.2481 60.7162 50.6175 61.1114 43.9913C59.3265 44.7295 57.4093 45.6022 55.3609 46.6193C53.7276 47.4303 52.1679 48.3366 50.6884 49.3186C51.2457 49.6487 51.807 49.9739 52.3713 50.2942C53.5649 50.9717 53.9794 52.4819 53.2971 53.6672C52.6149 54.8526 51.0942 55.2642 49.9006 54.5867C48.7433 53.9298 47.5831 53.2448 46.4294 52.5295C41.6392 56.6105 38.0148 61.4355 35.8846 66.0393H56.0753ZM34.1584 70.9836C33.7422 72.815 33.6353 74.4841 33.82 75.9204C34.1363 78.3782 35.2803 80.1238 37.313 81.1331C39.867 82.4013 42.1036 82.2695 44.2038 81.3003C46.4273 80.2743 48.5997 78.2493 50.6209 75.5669C51.6982 74.1372 52.6911 72.5769 53.5909 70.9836H34.1584ZM53.1343 42.1971C56.0539 40.7474 58.7644 39.5554 61.2583 38.6092C61.2567 38.3417 61.2537 38.0734 61.2493 37.8045C61.0967 28.5618 59.2527 19.0269 54.1542 12.5573C49.0593 6.09217 42.3684 4.10465 37.2129 5.25661C32.1796 6.38127 28.1093 10.5888 28.1093 17.8321C28.1093 30.5673 36.0051 39.5488 46.147 46.4431C48.3132 44.8641 50.6488 43.4312 53.1343 42.1971Z" fill="black"/><path d="M18.6674 38.9519C19.6396 39.9174 19.6396 41.4826 18.6674 42.4481L13.5819 47.4984L18.6674 52.5487C19.6396 53.5141 19.6396 55.0794 18.6674 56.0448C17.6953 57.0102 16.1191 57.0102 15.1469 56.0448L10.0615 50.9945L4.97595 56.0448C4.00379 57.0102 2.42762 57.0102 1.45546 56.0448C0.483306 55.0794 0.483306 53.5141 1.45546 52.5487L6.54096 47.4984L1.45546 42.4481C0.483307 41.4826 0.483307 39.9174 1.45546 38.9519C2.42762 37.9865 4.0038 37.9865 4.97595 38.9519L10.0615 44.0022L15.147 38.9519C16.1191 37.9865 17.6953 37.9865 18.6674 38.9519Z" fill="black"/></svg>