<svg width="25" height="24" viewBox="0 0 25 24" fill="none" xmlns="http://www.w3.org/2000/svg">
    <path opacity="0.1" d="M12.5 0C5.87258 0 0.5 5.37258 0.5 12C0.5 18.6274 5.87258 24 12.5 24C19.1274 24 24.5 18.6274 24.5 12C24.4923 5.37578 19.1242 0.00771476 12.5 0Z" fill="#010205" />
    <path d="M19.427 8.20073L12.582 17.4897C12.4188 17.7063 12.1753 17.8482 11.9064 17.8836C11.6375 17.9189 11.3657 17.8448 11.152 17.6777L6.264 13.7697C5.83267 13.4246 5.76282 12.7951 6.108 12.3637C6.45318 11.9324 7.08267 11.8626 7.514 12.2077L11.59 15.4687L17.817 7.01773C18.0212 6.71132 18.3773 6.54191 18.7438 6.57677C19.1104 6.61162 19.4281 6.8451 19.5709 7.1845C19.7137 7.52391 19.6584 7.91432 19.427 8.20073Z" fill="#010205" />
</svg>